a35cca13c3f91d1a279bf576b8264d05 *tests/data/fate/h264_redundant_pps-side_data.nut
596153 tests/data/fate/h264_redundant_pps-side_data.nut
#extradata 0:       34, 0x851f08e4
#tb 0: 1/48000
#media_type 0: video
#codec_id 0: h264
#dimensions 0: 1920x1080
#sar 0: 0/1
0,      -2002,          0,     2002,   247959, 0xdb721881, S=1,       34
0,          0,       4004,     2002,    43356, 0xa366eb79, F=0x0
0,       2002,       2002,     2002,    11423, 0x9c0a86fa, F=0x0
0,       4004,       8008,     2002,    50801, 0xfbfe860d, F=0x0
0,       6006,       6006,     2002,    12567, 0x650a5321, F=0x0
0,       8008,      12012,     2002,    52447, 0x19e106c1, F=0x0
0,      10010,      10010,     2002,    12575, 0x83c94868, F=0x0
0,      12012,      16016,     2002,    54028, 0xa8460c03, F=0x0
0,      14014,      14014,     2002,    13539, 0x0bc96c74, F=0x0
0,      16016,      20020,     2002,    54489, 0x319c9032, F=0x0
0,      18018,      18018,     2002,    13705, 0x38a02805, F=0x0
0,      20020,      22022,     2002,    22313, 0xec81a420, F=0x0
0,      22022,      24024,     2002,     6335, 0xa524214d
